v -2.120242 0.000000 -1.097470
v -2.120242 0.000000 -1.094871
v -2.120242 0.000769 -1.094871
v -2.120242 0.000769 -1.097470
v -2.116421 0.000769 -1.097470
v -2.116421 0.000769 -1.094871
v -2.116421 0.000000 -1.094871
v -2.116421 0.000000 -1.097470
v -2.120242 2.378670 -1.097470
v -2.120242 2.378670 -1.094871
v -2.120242 2.381397 -1.094871
v -2.120242 2.381397 -1.097470
v -2.116421 2.378670 -1.097470
v -2.116421 2.378670 -1.094871
v -2.116421 2.381397 -1.097470
v -2.116421 2.381397 -1.094871
v -2.120242 0.000000 -0.877956
v -2.120242 0.000769 -0.877956
v -2.120242 0.000000 -0.875705
v -2.120242 0.000769 -0.875705
v -2.116421 0.000769 -0.877956
v -2.116421 0.000000 -0.877956
v -2.116421 0.000769 -0.875705
v -2.116421 0.000000 -0.875705
v -2.120242 2.378670 -0.877956
v -2.120242 2.381397 -0.877956
v -2.120242 2.378670 -0.875705
v -2.120242 2.381397 -0.875705
v -2.116421 2.378670 -0.877956
v -2.116421 2.378670 -0.875705
v -2.116421 2.381397 -0.877956
v -2.116421 2.381397 -0.875705
v -2.119426 0.000769 -1.097470
v -2.119426 0.000000 -1.097470
v -2.119426 0.000000 -0.875705
v -2.119426 0.000769 -0.875705
v -2.119426 2.378670 -1.097470
v -2.119426 2.381397 -1.097470
v -2.119426 2.378670 -0.875705
v -2.119426 2.381397 -0.875705
v -2.119426 2.381397 -1.094871
v -2.119426 0.000000 -1.094871
v -2.119426 2.381397 -0.877956
v -2.119426 0.000000 -0.877956
v -2.117354 0.000769 -1.097470
v -2.117354 0.000000 -1.097470
v -2.117354 0.000000 -0.875705
v -2.117354 0.000769 -0.875705
v -2.117354 2.378670 -1.097470
v -2.117354 2.381397 -1.097470
v -2.117354 2.378670 -0.875705
v -2.117354 2.381397 -0.875705
v -2.117354 2.381397 -1.094871
v -2.117354 0.000000 -1.094871
v -2.117354 2.381397 -0.877956
v -2.117354 0.000000 -0.877956
v -2.120242 2.381397 0.858657
v -2.120242 2.381397 0.856141
v -2.120242 2.379890 0.856141
v -2.120242 2.379890 0.858657
v -2.116421 2.379890 0.858657
v -2.116421 2.379890 0.856141
v -2.116421 2.381397 0.856141
v -2.116421 2.381397 0.858657
v -2.120242 2.381397 3.895105
v -2.120242 2.381397 3.892723
v -2.120242 2.379890 3.892723
v -2.120242 2.379890 3.895105
v -2.116422 2.379890 3.895105
v -2.116422 2.379890 3.892723
v -2.116422 2.381397 3.892723
v -2.116422 2.381397 3.895105
v -2.120242 0.002429 0.856141
v -2.120242 0.002429 0.858657
v -2.120242 0.000000 0.856141
v -2.120242 0.000000 0.858657
v -2.116421 0.000000 0.856141
v -2.116421 0.002429 0.856141
v -2.116421 0.002429 0.858657
v -2.116421 0.000000 0.858657
v -2.120242 0.002429 3.892723
v -2.120242 0.002429 3.895105
v -2.120242 0.000000 3.895105
v -2.120242 0.000000 3.892723
v -2.116422 0.000000 3.892723
v -2.116422 0.002429 3.892723
v -2.116422 0.002429 3.895105
v -2.116422 0.000000 3.895105
v -2.119390 2.381397 3.895105
v -2.119390 2.379890 3.895105
v -2.119390 2.379890 0.856141
v -2.119390 2.381397 0.856141
v -2.119390 2.381397 0.858657
v -2.119390 0.000000 0.856141
v -2.119390 0.000000 0.858657
v -2.119390 2.381397 3.892723
v -2.119390 0.000000 3.895105
v -2.119390 0.000000 3.892723
v -2.119390 0.002429 3.895105
v -2.119390 0.002429 0.856141
v -2.117216 2.381397 3.895105
v -2.117216 2.379890 3.895105
v -2.117216 2.379890 0.856141
v -2.117216 2.381397 0.856141
v -2.117216 2.381397 0.858657
v -2.117216 0.000000 0.856141
v -2.117216 0.000000 0.858657
v -2.117216 2.381397 3.892723
v -2.117216 0.000000 3.892723
v -2.117216 0.000000 3.895105
v -2.117216 0.002429 3.895105
v -2.117216 0.002429 0.856141
vn -0.577300 -0.577300 -0.577300
vn -0.707100 -0.707100 0.000000
vn -1.000000 0.000000 0.000000
vn -0.707100 0.000000 -0.707100
vn 0.707100 0.000000 -0.707100
vn 1.000000 0.000000 0.000000
vn 0.707100 -0.707100 0.000000
vn 0.577300 -0.577300 -0.577300
vn -0.707100 0.000000 -0.707100
vn -1.000000 0.000000 0.000000
vn -0.707100 0.707100 0.000000
vn -0.577300 0.577300 -0.577300
vn 0.707100 0.000000 -0.707100
vn 1.000000 0.000000 0.000000
vn 0.577300 0.577300 -0.577300
vn 0.707100 0.707100 0.000000
vn -0.707100 -0.707100 0.000000
vn -1.000000 0.000000 0.000000
vn -0.577300 -0.577300 0.577300
vn -0.707100 0.000000 0.707100
vn 1.000000 0.000000 0.000000
vn 0.707100 -0.707100 0.000000
vn 0.707100 0.000000 0.707100
vn 0.577300 -0.577300 0.577300
vn -1.000000 0.000000 0.000000
vn -0.707100 0.707100 0.000000
vn -0.707100 0.000000 0.707100
vn -0.577300 0.577300 0.577300
vn 1.000000 0.000000 0.000000
vn 0.707100 0.000000 0.707100
vn 0.707100 0.707100 0.000000
vn 0.577300 0.577300 0.577300
vn 0.000000 0.000000 -1.000000
vn 0.000000 -0.707100 -0.707100
vn 0.000000 -0.707100 0.707100
vn 0.000000 0.000000 1.000000
vn 0.000000 0.000000 -1.000000
vn 0.000000 0.707100 -0.707100
vn 0.000000 0.000000 1.000000
vn 0.000000 0.707100 0.707100
vn 0.000000 1.000000 0.000000
vn 0.000000 -1.000000 0.000000
vn 0.000000 1.000000 0.000000
vn 0.000000 -1.000000 0.000000
vn 0.000000 0.000000 -1.000000
vn 0.000000 -0.707100 -0.707100
vn 0.000000 -0.707100 0.707100
vn 0.000000 0.000000 1.000000
vn 0.000000 0.000000 -1.000000
vn 0.000000 0.707100 -0.707100
vn 0.000000 0.000000 1.000000
vn 0.000000 0.707100 0.707100
vn 0.000000 1.000000 0.000000
vn 0.000000 -1.000000 0.000000
vn 0.000000 1.000000 0.000000
vn 0.000000 -1.000000 0.000000
vn -0.707100 0.707100 0.000000
vn -0.577300 0.577300 -0.577300
vn -0.707100 0.000000 -0.707100
vn -1.000000 0.000000 0.000000
vn 1.000000 0.000000 0.000000
vn 0.707100 0.000000 -0.707100
vn 0.577300 0.577300 -0.577300
vn 0.707100 0.707100 0.000000
vn -0.577300 0.577300 0.577300
vn -0.707100 0.707100 0.000000
vn -1.000000 0.000000 0.000000
vn -0.707100 0.000000 0.707100
vn 0.707100 0.000000 0.707100
vn 1.000000 0.000000 0.000000
vn 0.707100 0.707100 0.000000
vn 0.577300 0.577300 0.577300
vn -0.707100 0.000000 -0.707100
vn -1.000000 0.000000 0.000000
vn -0.577300 -0.577300 -0.577300
vn -0.707100 -0.707100 0.000000
vn 0.577300 -0.577300 -0.577300
vn 0.707100 0.000000 -0.707100
vn 1.000000 0.000000 0.000000
vn 0.707100 -0.707100 0.000000
vn -1.000000 0.000000 0.000000
vn -0.707100 0.000000 0.707100
vn -0.577300 -0.577300 0.577300
vn -0.707100 -0.707100 0.000000
vn 0.707100 -0.707100 0.000000
vn 1.000000 0.000000 0.000000
vn 0.707100 0.000000 0.707100
vn 0.577300 -0.577300 0.577300
vn 0.000000 0.707100 0.707100
vn 0.000000 0.000000 1.000000
vn 0.000000 0.000000 -1.000000
vn 0.000000 0.707100 -0.707100
vn 0.000000 1.000000 0.000000
vn 0.000000 -0.707100 -0.707100
vn 0.000000 -1.000000 0.000000
vn 0.000000 1.000000 0.000000
vn 0.000000 -0.707100 0.707100
vn 0.000000 -1.000000 0.000000
vn 0.000000 0.000000 1.000000
vn 0.000000 0.000000 -1.000000
vn 0.000000 0.707100 0.707100
vn 0.000000 0.000000 1.000000
vn 0.000000 0.000000 -1.000000
vn 0.000000 0.707100 -0.707100
vn 0.000000 1.000000 0.000000
vn 0.000000 -0.707100 -0.707100
vn 0.000000 -1.000000 0.000000
vn 0.000000 1.000000 0.000000
vn 0.000000 -1.000000 0.000000
vn 0.000000 -0.707100 0.707100
vn 0.000000 0.000000 1.000000
vn 0.000000 0.000000 -1.000000
vt 1.054300 0.116900
vt 1.053400 0.116900
vt 1.053400 0.117100
vt 1.054300 0.117100
vt 1.054300 0.117100
vt 1.053400 0.117100
vt 1.053400 0.116900
vt 1.054300 0.116900
vt 1.054300 0.893100
vt 1.053400 0.893100
vt 1.053400 0.894000
vt 1.054300 0.894000
vt 1.054300 0.893100
vt 1.053400 0.893100
vt 1.054300 0.894000
vt 1.053400 0.894000
vt 0.982600 0.116900
vt 0.982600 0.117100
vt 0.981900 0.116900
vt 0.981900 0.117100
vt 0.982600 0.117100
vt 0.982600 0.116900
vt 0.981900 0.117100
vt 0.981900 0.116900
vt 0.982600 0.893100
vt 0.982600 0.894000
vt 0.981900 0.893100
vt 0.981900 0.894000
vt 0.982600 0.893100
vt 0.981900 0.893100
vt 0.982600 0.894000
vt 0.981900 0.894000
vt 1.054300 0.117100
vt 1.054300 0.116900
vt 0.981900 0.116900
vt 0.981900 0.117100
vt 1.054300 0.893100
vt 1.054300 0.894000
vt 0.981900 0.893100
vt 0.981900 0.894000
vt 1.053400 0.894000
vt 1.053400 0.116900
vt 0.982600 0.894000
vt 0.982600 0.116900
vt 1.054300 0.117100
vt 1.054300 0.116900
vt 0.981900 0.116900
vt 0.981900 0.117100
vt 1.054300 0.893100
vt 1.054300 0.894000
vt 0.981900 0.893100
vt 0.981900 0.894000
vt 1.053400 0.894000
vt 1.053400 0.116900
vt 0.982600 0.894000
vt 0.982600 0.116900
vt 0.981100 0.887900
vt 0.981900 0.887900
vt 0.981900 0.887400
vt 0.981100 0.887400
vt 0.981100 0.887400
vt 0.981900 0.887400
vt 0.981900 0.887900
vt 0.981100 0.887900
vt -0.002000 0.887900
vt -0.001200 0.887900
vt -0.001200 0.887400
vt -0.002000 0.887400
vt -0.002000 0.887400
vt -0.001200 0.887400
vt -0.001200 0.887900
vt -0.002000 0.887900
vt 0.981900 0.117700
vt 0.981100 0.117700
vt 0.981900 0.116900
vt 0.981100 0.116900
vt 0.981900 0.116900
vt 0.981900 0.117700
vt 0.981100 0.117700
vt 0.981100 0.116900
vt -0.001200 0.117700
vt -0.002000 0.117700
vt -0.002000 0.116900
vt -0.001200 0.116900
vt -0.001200 0.116900
vt -0.001200 0.117700
vt -0.002000 0.117700
vt -0.002000 0.116900
vt -0.002000 0.887900
vt -0.002000 0.887400
vt 0.981900 0.887400
vt 0.981900 0.887900
vt 0.981100 0.887900
vt 0.981900 0.116900
vt 0.981100 0.116900
vt -0.001200 0.887900
vt -0.002000 0.116900
vt -0.001200 0.116900
vt -0.002000 0.117700
vt 0.981900 0.117700
vt -0.002000 0.887900
vt -0.002000 0.887400
vt 0.981900 0.887400
vt 0.981900 0.887900
vt 0.981100 0.887900
vt 0.981900 0.116900
vt 0.981100 0.116900
vt -0.001200 0.887900
vt -0.001200 0.116900
vt -0.002000 0.116900
vt -0.002000 0.117700
vt 0.981900 0.117700
f 1/1/1 2/2/2 3/3/3
f 1/1/1 3/3/3 4/4/4
f 5/5/5 6/6/6 7/7/7
f 5/5/5 7/7/7 8/8/8
f 9/9/9 10/10/10 11/11/11
f 9/9/9 11/11/11 12/12/12
f 4/4/4 3/3/3 10/10/10
f 4/4/4 10/10/10 9/9/9
f 13/13/13 14/14/14 6/6/6
f 13/13/13 6/6/6 5/5/5
f 15/15/15 16/16/16 14/14/14
f 15/15/15 14/14/14 13/13/13
f 2/2/2 17/17/17 18/18/18
f 2/2/2 18/18/18 3/3/3
f 17/17/17 19/19/19 20/20/20
f 17/17/17 20/20/20 18/18/18
f 6/6/6 21/21/21 22/22/22
f 6/6/6 22/22/22 7/7/7
f 21/21/21 23/23/23 24/24/24
f 21/21/21 24/24/24 22/22/22
f 10/10/10 25/25/25 26/26/26
f 10/10/10 26/26/26 11/11/11
f 25/25/25 27/27/27 28/28/28
f 25/25/25 28/28/28 26/26/26
f 3/3/3 18/18/18 25/25/25
f 3/3/3 25/25/25 10/10/10
f 18/18/18 20/20/20 27/27/27
f 18/18/18 27/27/27 25/25/25
f 14/14/14 29/29/29 21/21/21
f 14/14/14 21/21/21 6/6/6
f 29/29/29 30/30/30 23/23/23
f 29/29/29 23/23/23 21/21/21
f 16/16/16 31/31/31 29/29/29
f 16/16/16 29/29/29 14/14/14
f 31/31/31 32/32/32 30/30/30
f 31/31/31 30/30/30 29/29/29
f 4/4/4 33/33/33 34/34/34
f 4/4/4 34/34/34 1/1/1
f 19/19/19 35/35/35 36/36/36
f 19/19/19 36/36/36 20/20/20
f 9/9/9 37/37/37 33/33/33
f 9/9/9 33/33/33 4/4/4
f 12/12/12 38/38/38 37/37/37
f 12/12/12 37/37/37 9/9/9
f 27/27/27 39/39/39 40/40/40
f 27/27/27 40/40/40 28/28/28
f 20/20/20 36/36/36 39/39/39
f 20/20/20 39/39/39 27/27/27
f 11/11/11 41/41/41 38/38/38
f 11/11/11 38/38/38 12/12/12
f 1/1/1 34/34/34 42/42/42
f 1/1/1 42/42/42 2/2/2
f 26/26/26 43/43/43 41/41/41
f 26/26/26 41/41/41 11/11/11
f 28/28/28 40/40/40 43/43/43
f 28/28/28 43/43/43 26/26/26
f 17/17/17 44/44/44 35/35/35
f 17/17/17 35/35/35 19/19/19
f 2/2/2 42/42/42 44/44/44
f 2/2/2 44/44/44 17/17/17
f 33/33/33 45/45/45 46/46/46
f 33/33/33 46/46/46 34/34/34
f 45/45/45 5/5/5 8/8/8
f 45/45/45 8/8/8 46/46/46
f 35/35/35 47/47/47 48/48/48
f 35/35/35 48/48/48 36/36/36
f 47/47/47 24/24/24 23/23/23
f 47/47/47 23/23/23 48/48/48
f 37/37/37 49/49/49 45/45/45
f 37/37/37 45/45/45 33/33/33
f 49/49/49 13/13/13 5/5/5
f 49/49/49 5/5/5 45/45/45
f 38/38/38 50/50/50 49/49/49
f 38/38/38 49/49/49 37/37/37
f 50/50/50 15/15/15 13/13/13
f 50/50/50 13/13/13 49/49/49
f 39/39/39 51/51/51 52/52/52
f 39/39/39 52/52/52 40/40/40
f 51/51/51 30/30/30 32/32/32
f 51/51/51 32/32/32 52/52/52
f 36/36/36 48/48/48 51/51/51
f 36/36/36 51/51/51 39/39/39
f 48/48/48 23/23/23 30/30/30
f 48/48/48 30/30/30 51/51/51
f 41/41/41 53/53/53 50/50/50
f 41/41/41 50/50/50 38/38/38
f 53/53/53 16/16/16 15/15/15
f 53/53/53 15/15/15 50/50/50
f 34/34/34 46/46/46 54/54/54
f 34/34/34 54/54/54 42/42/42
f 46/46/46 8/8/8 7/7/7
f 46/46/46 7/7/7 54/54/54
f 43/43/43 55/55/55 53/53/53
f 43/43/43 53/53/53 41/41/41
f 55/55/55 31/31/31 16/16/16
f 55/55/55 16/16/16 53/53/53
f 40/40/40 52/52/52 55/55/55
f 40/40/40 55/55/55 43/43/43
f 52/52/52 32/32/32 31/31/31
f 52/52/52 31/31/31 55/55/55
f 44/44/44 56/56/56 47/47/47
f 44/44/44 47/47/47 35/35/35
f 56/56/56 22/22/22 24/24/24
f 56/56/56 24/24/24 47/47/47
f 42/42/42 54/54/54 56/56/56
f 42/42/42 56/56/56 44/44/44
f 54/54/54 7/7/7 22/22/22
f 54/54/54 22/22/22 56/56/56
f 57/57/57 58/58/58 59/59/59
f 57/57/57 59/59/59 60/60/60
f 61/61/61 62/62/62 63/63/63
f 61/61/61 63/63/63 64/64/64
f 65/65/65 66/66/66 67/67/67
f 65/65/65 67/67/67 68/68/68
f 66/66/66 57/57/57 60/60/60
f 66/66/66 60/60/60 67/67/67
f 69/69/69 70/70/70 71/71/71
f 69/69/69 71/71/71 72/72/72
f 70/70/70 61/61/61 64/64/64
f 70/70/70 64/64/64 71/71/71
f 59/59/59 73/73/73 74/74/74
f 59/59/59 74/74/74 60/60/60
f 73/73/73 75/75/75 76/76/76
f 73/73/73 76/76/76 74/74/74
f 77/77/77 78/78/78 79/79/79
f 77/77/77 79/79/79 80/80/80
f 78/78/78 62/62/62 61/61/61
f 78/78/78 61/61/61 79/79/79
f 67/67/67 81/81/81 82/82/82
f 67/67/67 82/82/82 68/68/68
f 83/83/83 82/82/82 81/81/81
f 83/83/83 81/81/81 84/84/84
f 60/60/60 74/74/74 81/81/81
f 60/60/60 81/81/81 67/67/67
f 74/74/74 76/76/76 84/84/84
f 74/74/74 84/84/84 81/81/81
f 85/85/85 86/86/86 87/87/87
f 85/85/85 87/87/87 88/88/88
f 86/86/86 70/70/70 69/69/69
f 86/86/86 69/69/69 87/87/87
f 80/80/80 79/79/79 86/86/86
f 80/80/80 86/86/86 85/85/85
f 79/79/79 61/61/61 70/70/70
f 79/79/79 70/70/70 86/86/86
f 89/89/89 65/65/65 68/68/68
f 89/89/89 68/68/68 90/90/90
f 91/91/91 59/59/59 58/58/58
f 91/91/91 58/58/58 92/92/92
f 92/92/92 58/58/58 57/57/57
f 92/92/92 57/57/57 93/93/93
f 75/75/75 94/94/94 95/95/95
f 75/75/75 95/95/95 76/76/76
f 96/96/96 66/66/66 65/65/65
f 96/96/96 65/65/65 89/89/89
f 93/93/93 57/57/57 66/66/66
f 93/93/93 66/66/66 96/96/96
f 97/97/97 83/83/83 84/84/84
f 97/97/97 84/84/84 98/98/98
f 76/76/76 95/95/95 98/98/98
f 76/76/76 98/98/98 84/84/84
f 83/83/83 97/97/97 99/99/99
f 83/83/83 99/99/99 82/82/82
f 90/90/90 68/68/68 82/82/82
f 90/90/90 82/82/82 99/99/99
f 100/100/100 73/73/73 59/59/59
f 100/100/100 59/59/59 91/91/91
f 94/94/94 75/75/75 73/73/73
f 94/94/94 73/73/73 100/100/100
f 72/72/72 101/101/101 102/102/102
f 72/72/72 102/102/102 69/69/69
f 101/101/101 89/89/89 90/90/90
f 101/101/101 90/90/90 102/102/102
f 62/62/62 103/103/103 104/104/104
f 62/62/62 104/104/104 63/63/63
f 103/103/103 91/91/91 92/92/92
f 103/103/103 92/92/92 104/104/104
f 63/63/63 104/104/104 105/105/105
f 63/63/63 105/105/105 64/64/64
f 104/104/104 92/92/92 93/93/93
f 104/104/104 93/93/93 105/105/105
f 94/94/94 106/106/106 107/107/107
f 94/94/94 107/107/107 95/95/95
f 106/106/106 77/77/77 80/80/80
f 106/106/106 80/80/80 107/107/107
f 71/71/71 108/108/108 101/101/101
f 71/71/71 101/101/101 72/72/72
f 108/108/108 96/96/96 89/89/89
f 108/108/108 89/89/89 101/101/101
f 64/64/64 105/105/105 108/108/108
f 64/64/64 108/108/108 71/71/71
f 105/105/105 93/93/93 96/96/96
f 105/105/105 96/96/96 108/108/108
f 98/98/98 109/109/109 110/110/110
f 98/98/98 110/110/110 97/97/97
f 109/109/109 85/85/85 88/88/88
f 109/109/109 88/88/88 110/110/110
f 95/95/95 107/107/107 109/109/109
f 95/95/95 109/109/109 98/98/98
f 107/107/107 80/80/80 85/85/85
f 107/107/107 85/85/85 109/109/109
f 87/87/87 111/111/111 110/110/110
f 87/87/87 110/110/110 88/88/88
f 111/111/111 99/99/99 97/97/97
f 111/111/111 97/97/97 110/110/110
f 69/69/69 102/102/102 111/111/111
f 69/69/69 111/111/111 87/87/87
f 102/102/102 90/90/90 99/99/99
f 102/102/102 99/99/99 111/111/111
f 78/78/78 112/112/112 103/103/103
f 78/78/78 103/103/103 62/62/62
f 112/112/112 100/100/100 91/91/91
f 112/112/112 91/91/91 103/103/103
f 77/77/77 106/106/106 112/112/112
f 77/77/77 112/112/112 78/78/78
f 106/106/106 94/94/94 100/100/100
f 106/106/106 100/100/100 112/112/112
